<svg xmlns="http://www.w3.org/2000/svg" xmlns:xlink="http://www.w3.org/1999/xlink" class="svg-canvas" viewBox="206.31775795248 32.426445622428 387.36448409501 387.36448409501" width="1200" height="1200" preserveAspectRatio="none" version="1.1"><!--滤镜--><defs></defs><!-- 背景 --><g id="background"><rect x="0" y="0" fill="#ffffff" width="800" height="600"></rect></g><!--元素--><g id="shape_m6bj3p8Csc" ref="shape_m6bj3p8Csc" key="shape_m6bj3p8Csc" transform="translate(281.42243056673,120) rotate(0,118.57756943326,106.10868766994) scale(1,1)" style="[object Object]" filter=""><!--普通元素--><svg xmlns="http://www.w3.org/2000/svg" xmlns:xlink="http://www.w3.org/1999/xlink" version="1.1" id="图层_1" x="0px" y="0px" width="237.15513886651" height="212.21737533987" viewBox="1.9999979734420776 1.499997615814209 181.0999755859375 162.05662536621094" style="enable-background:new 0 0 184 165;" xml:space="preserve" class="style-removed" preserveAspectRatio="none" data-parent="shape_m6bj3p8Csc">

<path d="M181.2,154.1c-3.6-7-7.1-14-10.8-21c-1.8-3.5-3.8-6.9-5.6-10.4c-1.9-3.4-3.9-6.9-5.9-10.3  c-0.1-0.1-0.3-0.2-0.4-0.2c-0.2,0.1-0.3,0.3-0.3,0.5c1.1,3.8,2.3,7.6,3.5,11.3c1.2,3.7,2.4,7.5,3.7,11.2c2,5.8,4.1,11.6,6.2,17.4  c-2.9,0.5-5.9,0.8-8.8,0.6c-4.3-0.3-8.6-1.1-12.5-2.9c-3.9-1.7-7.5-4.1-10.5-7c-2.1-2-4-4.3-5.5-6.8c2.8-4,5-8.3,6.5-13  c2-6,3-12.4,2.6-18.8c-0.4-6.4-2.1-12.7-4.8-18.4c-2.8-5.7-6.5-10.9-11.3-15.2l-4.7-4.4l-4.5,4.5c-5,5-10,10.1-14.9,15.1  C97.9,91.7,93,96.8,88.2,102c-2,2.2-2.1,5.7,0,7.9c2.2,2.4,5.9,2.5,8.2,0.4c5.2-4.8,10.4-9.6,15.5-14.5c3.4-3.3,6.8-6.6,10.2-9.8  c1.5,2.1,2.9,4.3,4.1,6.6c2.1,4.2,3.3,8.8,3.6,13.4c0.4,4.6-0.2,9.3-1.6,13.9c-1.4,4.5-3.7,8.9-6.5,12.6l-2.6,3.4l1.9,3.4  c2.8,5.1,6.4,9.5,10.6,13.2c2.1,1.9,4.4,3.5,6.9,5c2.5,1.4,5,2.6,7.7,3.5c5.3,1.9,10.9,2.8,16.5,2.5c5.6-0.3,11-1.4,16-3.6l4.4-1.9  L181.2,154.1z" fill="#1BB6E2" stroke-width="0"></path>
<path d="M112.7,32.1c-1-5.5-3.1-10.9-6-15.6c-3-4.7-6.7-8.8-11.1-12.1l-3.8-2.9l-2.4,3.7C85,11.7,80.8,18.3,76.6,25  c-2.1,3.3-4.1,6.7-6.2,10.1c-2,3.4-4,6.8-6,10.2c-0.1,0.1-0.1,0.3,0.1,0.5c0.2,0.1,0.4,0.1,0.5,0c2.7-2.9,5.4-5.8,8.1-8.7  c2.6-2.9,5.3-5.9,7.8-8.8c4.1-4.6,8-9.3,12-14.1c1.9,2.3,3.6,4.7,4.9,7.3c1.9,3.9,3.3,8,3.8,12.2c0.5,4.2,0.2,8.5-0.8,12.6  c-0.7,2.8-1.7,5.6-3.1,8.2c-4.9-0.4-9.7-0.1-14.5,0.9c-6.2,1.3-12.3,3.6-17.6,7.2c-5.3,3.5-10,8.1-13.5,13.4  c-3.6,5.3-6.1,11.1-7.6,17.4l-1.4,6.3l6.2,1.7c6.8,1.8,13.7,3.6,20.6,5.4c6.9,1.7,13.8,3.4,20.7,5c2.9,0.7,6-1,6.9-3.9  c1-3.1-0.7-6.3-3.8-7.3c-6.8-2.1-13.5-4.2-20.3-6.2c-4.5-1.3-9.1-2.6-13.6-3.9c1-2.4,2.2-4.7,3.6-6.8c2.6-3.9,6-7.2,9.8-9.8  c3.8-2.7,8.2-4.5,12.8-5.6c4.6-1,9.6-1.3,14.1-0.7l4.2,0.5l2-3.3c3-5,5-10.2,6.1-15.8c0.5-2.8,0.8-5.6,0.9-8.4  C113.5,37.7,113.2,34.8,112.7,32.1z" fill="#1BB6E2" stroke-width="0"></path>
<path d="M109.5,145.6c-1.8-6.8-3.7-13.7-5.6-20.5c-1.9-6.8-3.9-13.6-6-20.4c-0.9-2.9-3.8-4.7-6.8-4  c-3.1,0.7-5.1,3.8-4.4,6.9c1.5,6.9,3.1,13.8,4.8,20.7c1.1,4.6,2.2,9.2,3.4,13.8c-2.6,0.3-5.1,0.4-7.7,0.2c-4.7-0.3-9.2-1.6-13.4-3.6  c-4.2-2-8-4.8-11.2-8.3c-3.2-3.4-5.9-7.6-7.7-11.9l-1.7-3.9l-3.9-0.1c-5.8-0.1-11.4,0.8-16.7,2.6c-2.7,0.9-5.3,2.1-7.7,3.5  c-2.4,1.4-4.8,3.1-6.9,4.9c-4.3,3.7-7.9,8.1-10.5,13c-2.6,4.9-4.3,10.2-4.9,15.7l-0.6,4.8l4.4,0.2c7.8,0.4,15.7,0.8,23.6,1.1  c3.9,0.1,7.9,0.2,11.8,0.3c3.9,0.1,7.9,0.1,11.8,0c0.2,0,0.3-0.1,0.4-0.3c0-0.2-0.1-0.4-0.3-0.5c-3.8-0.9-7.7-1.8-11.5-2.6  c-3.9-0.8-7.7-1.6-11.6-2.4c-6.1-1.2-12.1-2.3-18.2-3.4c1-2.8,2.3-5.5,3.9-7.9c2.4-3.6,5.3-6.9,8.7-9.4c3.4-2.5,7.2-4.4,11.3-5.7  c2.8-0.8,5.7-1.3,8.6-1.4c2.1,4.4,4.7,8.5,8,12.1c4.2,4.7,9.3,8.8,15,11.6c5.7,2.9,12,4.6,18.4,5c6.4,0.5,12.7-0.2,18.8-2.1l6.2-1.9  L109.5,145.6z" fill="#1BB6E2" stroke-width="0"></path>
</svg></g></svg>