<svg class="svg-canvas" viewBox="0 0 800 600" width="1600" height="1200" preserveAspectRatio="none" version="1.1" xmlns="http://www.w3.org/2000/svg" xmlns:xlink="http://www.w3.org/1999/xlink">
        <!--滤镜-->
        <defs></defs>

        <!-- 背景 -->
        <g id="background">
            <rect x="0" y="0" fill="#ffffff" width="800" height="600"></rect>
            
          </g>

        <!--元素-->
        
                <g id="shape_34CtMVKDxj" ref="shape_34CtMVKDxj" key="shape_34CtMVKDxj" transform="translate(172.36141559608998,100.96625710318995) rotate(0,227.93,292.22) scale(1,1)" style="[object Object]" filter="">
                  <!--普通元素-->
                  <svg xmlns="http://www.w3.org/2000/svg" version="1.1" xmlns:xlink="http://www.w3.org/1999/xlink" width="617.72" height="584.44" viewBox="0 0 617.72 584.44" data-parent="shape_34CtMVKDxj"><g data-width="292.72381000000007" transform="translate(81.56809499999997, 0)"><path d="M21.12-56.65Q25.82-56.65 29.42-54.43Q33.02-52.20 35.04-48.15Q37.07-44.11 37.07-38.93L37.07-38.93Q37.07-33.83 35.16-29.98Q33.26-26.14 29.78-24.04Q26.30-21.93 21.77-21.93L21.77-21.93L16.51-21.93Q16.11-21.93 16.11-21.53L16.11-21.53L16.11-0.97Q16.11-0.57 15.82-0.28Q15.54 0 15.13 0L15.13 0L3.64 0Q3.24 0 2.95-0.28Q2.67-0.57 2.67-0.97L2.67-0.97L2.67-55.68Q2.67-56.08 2.95-56.37Q3.24-56.65 3.64-56.65L3.64-56.65L21.12-56.65ZM18.78-32.29Q20.96-32.29 22.30-33.95Q23.63-35.61 23.63-38.60L23.63-38.60Q23.63-41.76 22.30-43.46Q20.96-45.16 18.78-45.16L18.78-45.16L16.51-45.16Q16.11-45.16 16.11-44.75L16.11-44.75L16.11-32.70Q16.11-32.29 16.51-32.29L16.51-32.29L18.78-32.29Z" transform="translate(0 323.72) " fill="#000000" stroke="#000000" stroke-width="0.135" data-glyph-w="38.360820000000004" data-glyph-h="97.116" data-glyph-ascender="80.93" data-glyph-descender="-16.186"></path><path d="M36.58-56.65Q36.99-56.65 37.27-56.37Q37.55-56.08 37.55-55.68L37.55-55.68L37.55-46.13Q37.55-45.73 37.27-45.44Q36.99-45.16 36.58-45.16L36.58-45.16L26.55-45.16Q26.14-45.16 26.14-44.75L26.14-44.75L26.14-0.97Q26.14-0.57 25.86-0.28Q25.57 0 25.17 0L25.17 0L13.68 0Q13.27 0 12.99-0.28Q12.71-0.57 12.71-0.97L12.71-0.97L12.71-44.75Q12.71-45.16 12.30-45.16L12.30-45.16L2.67-45.16Q2.27-45.16 1.98-45.44Q1.70-45.73 1.70-46.13L1.70-46.13L1.70-55.68Q1.70-56.08 1.98-56.37Q2.27-56.65 2.67-56.65L2.67-56.65L36.58-56.65Z" transform="translate(38.360820000000004 323.72) " fill="#000000" stroke="#000000" stroke-width="0.135" data-glyph-w="39.25105" data-glyph-h="97.116" data-glyph-ascender="80.93" data-glyph-descender="-16.186"></path><path d="M13.52 0Q12.63 0 12.46-0.89L12.46-0.89L1.46-55.60L1.38-55.92Q1.38-56.65 2.27-56.65L2.27-56.65L14.16-56.65Q15.13-56.65 15.21-55.76L15.21-55.76L18.86-29.13Q18.94-28.89 19.10-28.89Q19.26-28.89 19.34-29.13L19.34-29.13L22.98-55.76Q23.07-56.65 24.04-56.65L24.04-56.65L33.51-56.65Q34.48-56.65 34.56-55.76L34.56-55.76L38.60-29.13Q38.68-28.89 38.85-28.89Q39.01-28.89 39.01-29.13L39.01-29.13L42.33-55.76Q42.41-56.65 43.30-56.65L43.30-56.65L54.95-56.65Q56.00-56.65 55.84-55.60L55.84-55.60L45.40-0.89Q45.32 0 44.35 0L44.35 0L33.99 0Q33.02 0 32.94-0.89L32.94-0.89L28.89-28.57Q28.81-28.81 28.61-28.81Q28.41-28.81 28.41-28.57L28.41-28.57L24.85-0.89Q24.76 0 23.87 0L23.87 0L13.52 0Z" transform="translate(77.61187000000001 323.72) " fill="#000000" stroke="#000000" stroke-width="0.135" data-glyph-w="57.217510000000004" data-glyph-h="97.116" data-glyph-ascender="80.93" data-glyph-descender="-16.186"></path><path d="M2.67-17.72Q2.27-17.72 1.98-18.01Q1.70-18.29 1.70-18.69L1.70-18.69L1.70-28.24Q1.70-28.65 1.98-28.93Q2.27-29.22 2.67-29.22L2.67-29.22L24.68-29.22Q25.09-29.22 25.37-28.93Q25.65-28.65 25.65-28.24L25.65-28.24L25.65-18.69Q25.65-18.29 25.37-18.01Q25.09-17.72 24.68-17.72L24.68-17.72L2.67-17.72Z" transform="translate(134.82938000000001 323.72) " fill="#000000" stroke="#000000" stroke-width="0.135" data-glyph-w="27.273410000000002" data-glyph-h="97.116" data-glyph-ascender="80.93" data-glyph-descender="-16.186"></path><path d="M19.10 0.65Q11.41 0.65 6.80-3.88Q2.19-8.42 2.19-15.94L2.19-15.94L2.19-40.79Q2.19-48.40 6.80-52.85Q11.41-57.30 19.10-57.30L19.10-57.30Q26.79-57.30 31.44-52.85Q36.09-48.40 36.09-40.79L36.09-40.79L36.09-40.06Q36.09-39.66 35.81-39.37Q35.53-39.09 35.12-39.09L35.12-39.09L23.63-38.60Q22.66-38.60 22.66-39.57L22.66-39.57L22.66-41.76Q22.66-43.62 21.69-44.71Q20.72-45.81 19.10-45.81L19.10-45.81Q17.56-45.81 16.59-44.71Q15.62-43.62 15.62-41.76L15.62-41.76L15.62-14.81Q15.62-13.03 16.59-11.94Q17.56-10.84 19.10-10.84L19.10-10.84Q20.72-10.84 21.69-11.94Q22.66-13.03 22.66-14.81L22.66-14.81L22.66-17.16Q22.66-17.56 22.94-17.85Q23.23-18.13 23.63-18.13L23.63-18.13L35.12-17.64Q35.53-17.64 35.81-17.36Q36.09-17.08 36.09-16.67L36.09-16.67L36.09-15.94Q36.09-8.42 31.44-3.88Q26.79 0.65 19.10 0.65L19.10 0.65Z" transform="translate(162.10279000000003 323.72) " fill="#000000" stroke="#000000" stroke-width="0.135" data-glyph-w="38.0371" data-glyph-h="97.116" data-glyph-ascender="80.93" data-glyph-descender="-16.186"></path><path d="M13.52 0Q12.63 0 12.46-0.89L12.46-0.89L1.46-55.60L1.38-55.92Q1.38-56.65 2.27-56.65L2.27-56.65L14.16-56.65Q15.13-56.65 15.21-55.76L15.21-55.76L18.86-29.13Q18.94-28.89 19.10-28.89Q19.26-28.89 19.34-29.13L19.34-29.13L22.98-55.76Q23.07-56.65 24.04-56.65L24.04-56.65L33.51-56.65Q34.48-56.65 34.56-55.76L34.56-55.76L38.60-29.13Q38.68-28.89 38.85-28.89Q39.01-28.89 39.01-29.13L39.01-29.13L42.33-55.76Q42.41-56.65 43.30-56.65L43.30-56.65L54.95-56.65Q56.00-56.65 55.84-55.60L55.84-55.60L45.40-0.89Q45.32 0 44.35 0L44.35 0L33.99 0Q33.02 0 32.94-0.89L32.94-0.89L28.89-28.57Q28.81-28.81 28.61-28.81Q28.41-28.81 28.41-28.57L28.41-28.57L24.85-0.89Q24.76 0 23.87 0L23.87 0L13.52 0Z" transform="translate(200.13989000000004 323.72) " fill="#000000" stroke="#000000" stroke-width="0.135" data-glyph-w="57.217510000000004" data-glyph-h="97.116" data-glyph-ascender="80.93" data-glyph-descender="-16.186"></path><path d="M3.80 0Q3.40 0 3.12-0.28Q2.83-0.57 2.83-0.97L2.83-0.97L2.83-55.68Q2.83-56.08 3.12-56.37Q3.40-56.65 3.80-56.65L3.80-56.65L15.30-56.65Q15.70-56.65 15.98-56.37Q16.27-56.08 16.27-55.68L16.27-55.68L16.27-11.90Q16.27-11.49 16.67-11.49L16.67-11.49L33.18-11.49Q33.59-11.49 33.87-11.21Q34.15-10.93 34.15-10.52L34.15-10.52L34.15-0.97Q34.15-0.57 33.87-0.28Q33.59 0 33.18 0L33.18 0L3.80 0Z" transform="translate(257.35740000000004 323.72) " fill="#000000" stroke="#000000" stroke-width="0.135" data-glyph-w="35.36641" data-glyph-h="97.116" data-glyph-ascender="80.93" data-glyph-descender="-16.186"></path></g></svg>
                </g>
                <g id="shape_m6bj3p8Csc" ref="shape_m6bj3p8Csc" key="shape_m6bj3p8Csc" transform="translate(281.42243056673,120) rotate(0,118.57756943326,106.10868766994) scale(1,1)" style="[object Object]" filter="">
                  <!--普通元素-->
                  <svg version="1.1" id="图层_1" xmlns="http://www.w3.org/2000/svg" xmlns:xlink="http://www.w3.org/1999/xlink" x="0px" y="0px" width="237.15513886651" height="212.21737533987" viewBox="1.9999979734420776 1.499997615814209 181.0999755859375 162.05662536621094" style="enable-background:new 0 0 184 165;" xml:space="preserve" class="style-removed" preserveAspectRatio="none" data-parent="shape_m6bj3p8Csc">

<path d="M181.2,154.1c-3.6-7-7.1-14-10.8-21c-1.8-3.5-3.8-6.9-5.6-10.4c-1.9-3.4-3.9-6.9-5.9-10.3
	c-0.1-0.1-0.3-0.2-0.4-0.2c-0.2,0.1-0.3,0.3-0.3,0.5c1.1,3.8,2.3,7.6,3.5,11.3c1.2,3.7,2.4,7.5,3.7,11.2c2,5.8,4.1,11.6,6.2,17.4
	c-2.9,0.5-5.9,0.8-8.8,0.6c-4.3-0.3-8.6-1.1-12.5-2.9c-3.9-1.7-7.5-4.1-10.5-7c-2.1-2-4-4.3-5.5-6.8c2.8-4,5-8.3,6.5-13
	c2-6,3-12.4,2.6-18.8c-0.4-6.4-2.1-12.7-4.8-18.4c-2.8-5.7-6.5-10.9-11.3-15.2l-4.7-4.4l-4.5,4.5c-5,5-10,10.1-14.9,15.1
	C97.9,91.7,93,96.8,88.2,102c-2,2.2-2.1,5.7,0,7.9c2.2,2.4,5.9,2.5,8.2,0.4c5.2-4.8,10.4-9.6,15.5-14.5c3.4-3.3,6.8-6.6,10.2-9.8
	c1.5,2.1,2.9,4.3,4.1,6.6c2.1,4.2,3.3,8.8,3.6,13.4c0.4,4.6-0.2,9.3-1.6,13.9c-1.4,4.5-3.7,8.9-6.5,12.6l-2.6,3.4l1.9,3.4
	c2.8,5.1,6.4,9.5,10.6,13.2c2.1,1.9,4.4,3.5,6.9,5c2.5,1.4,5,2.6,7.7,3.5c5.3,1.9,10.9,2.8,16.5,2.5c5.6-0.3,11-1.4,16-3.6l4.4-1.9
	L181.2,154.1z" fill="#1BB6E2" stroke-width="0"></path>
<path d="M112.7,32.1c-1-5.5-3.1-10.9-6-15.6c-3-4.7-6.7-8.8-11.1-12.1l-3.8-2.9l-2.4,3.7C85,11.7,80.8,18.3,76.6,25
	c-2.1,3.3-4.1,6.7-6.2,10.1c-2,3.4-4,6.8-6,10.2c-0.1,0.1-0.1,0.3,0.1,0.5c0.2,0.1,0.4,0.1,0.5,0c2.7-2.9,5.4-5.8,8.1-8.7
	c2.6-2.9,5.3-5.9,7.8-8.8c4.1-4.6,8-9.3,12-14.1c1.9,2.3,3.6,4.7,4.9,7.3c1.9,3.9,3.3,8,3.8,12.2c0.5,4.2,0.2,8.5-0.8,12.6
	c-0.7,2.8-1.7,5.6-3.1,8.2c-4.9-0.4-9.7-0.1-14.5,0.9c-6.2,1.3-12.3,3.6-17.6,7.2c-5.3,3.5-10,8.1-13.5,13.4
	c-3.6,5.3-6.1,11.1-7.6,17.4l-1.4,6.3l6.2,1.7c6.8,1.8,13.7,3.6,20.6,5.4c6.9,1.7,13.8,3.4,20.7,5c2.9,0.7,6-1,6.9-3.9
	c1-3.1-0.7-6.3-3.8-7.3c-6.8-2.1-13.5-4.2-20.3-6.2c-4.5-1.3-9.1-2.6-13.6-3.9c1-2.4,2.2-4.7,3.6-6.8c2.6-3.9,6-7.2,9.8-9.8
	c3.8-2.7,8.2-4.5,12.8-5.6c4.6-1,9.6-1.3,14.1-0.7l4.2,0.5l2-3.3c3-5,5-10.2,6.1-15.8c0.5-2.8,0.8-5.6,0.9-8.4
	C113.5,37.7,113.2,34.8,112.7,32.1z" fill="#1BB6E2" stroke-width="0"></path>
<path d="M109.5,145.6c-1.8-6.8-3.7-13.7-5.6-20.5c-1.9-6.8-3.9-13.6-6-20.4c-0.9-2.9-3.8-4.7-6.8-4
	c-3.1,0.7-5.1,3.8-4.4,6.9c1.5,6.9,3.1,13.8,4.8,20.7c1.1,4.6,2.2,9.2,3.4,13.8c-2.6,0.3-5.1,0.4-7.7,0.2c-4.7-0.3-9.2-1.6-13.4-3.6
	c-4.2-2-8-4.8-11.2-8.3c-3.2-3.4-5.9-7.6-7.7-11.9l-1.7-3.9l-3.9-0.1c-5.8-0.1-11.4,0.8-16.7,2.6c-2.7,0.9-5.3,2.1-7.7,3.5
	c-2.4,1.4-4.8,3.1-6.9,4.9c-4.3,3.7-7.9,8.1-10.5,13c-2.6,4.9-4.3,10.2-4.9,15.7l-0.6,4.8l4.4,0.2c7.8,0.4,15.7,0.8,23.6,1.1
	c3.9,0.1,7.9,0.2,11.8,0.3c3.9,0.1,7.9,0.1,11.8,0c0.2,0,0.3-0.1,0.4-0.3c0-0.2-0.1-0.4-0.3-0.5c-3.8-0.9-7.7-1.8-11.5-2.6
	c-3.9-0.8-7.7-1.6-11.6-2.4c-6.1-1.2-12.1-2.3-18.2-3.4c1-2.8,2.3-5.5,3.9-7.9c2.4-3.6,5.3-6.9,8.7-9.4c3.4-2.5,7.2-4.4,11.3-5.7
	c2.8-0.8,5.7-1.3,8.6-1.4c2.1,4.4,4.7,8.5,8,12.1c4.2,4.7,9.3,8.8,15,11.6c5.7,2.9,12,4.6,18.4,5c6.4,0.5,12.7-0.2,18.8-2.1l6.2-1.9
	L109.5,145.6z" fill="#1BB6E2" stroke-width="0"></path>
</svg>
                </g>
      </svg>